<mxfile host="app.diagrams.net" agent="Mozilla/5.0 (Windows NT 10.0; Win64; x64) AppleWebKit/537.36 (KHTML, like Gecko) Chrome/132.0.0.0 Safari/537.36 OPR/117.0.0.0" version="26.0.16">
  <diagram name="Page-1" id="6rvGRyhos5cbH06ILlYu">
    <mxGraphModel dx="1407" dy="1718" grid="1" gridSize="10" guides="1" tooltips="1" connect="1" arrows="1" fold="1" page="1" pageScale="1" pageWidth="850" pageHeight="1100" math="0" shadow="0">
      <root>
        <mxCell id="0" />
        <mxCell id="1" parent="0" />
        <mxCell id="AINoFc_AuR4UppCe1i0D-7" style="edgeStyle=orthogonalEdgeStyle;rounded=0;orthogonalLoop=1;jettySize=auto;html=1;entryX=0;entryY=0.5;entryDx=0;entryDy=0;" edge="1" parent="1" source="AINoFc_AuR4UppCe1i0D-1" target="AINoFc_AuR4UppCe1i0D-6">
          <mxGeometry relative="1" as="geometry">
            <Array as="points">
              <mxPoint x="430" y="100" />
            </Array>
          </mxGeometry>
        </mxCell>
        <mxCell id="AINoFc_AuR4UppCe1i0D-8" value="PWM" style="edgeLabel;html=1;align=center;verticalAlign=middle;resizable=0;points=[];" vertex="1" connectable="0" parent="AINoFc_AuR4UppCe1i0D-7">
          <mxGeometry x="0.2948" y="3" relative="1" as="geometry">
            <mxPoint as="offset" />
          </mxGeometry>
        </mxCell>
        <mxCell id="AINoFc_AuR4UppCe1i0D-10" style="edgeStyle=orthogonalEdgeStyle;rounded=0;orthogonalLoop=1;jettySize=auto;html=1;entryX=0;entryY=0.5;entryDx=0;entryDy=0;" edge="1" parent="1" source="AINoFc_AuR4UppCe1i0D-1" target="AINoFc_AuR4UppCe1i0D-9">
          <mxGeometry relative="1" as="geometry">
            <Array as="points">
              <mxPoint x="430" y="340" />
            </Array>
          </mxGeometry>
        </mxCell>
        <mxCell id="AINoFc_AuR4UppCe1i0D-11" value="I2C" style="edgeLabel;html=1;align=center;verticalAlign=middle;resizable=0;points=[];" vertex="1" connectable="0" parent="AINoFc_AuR4UppCe1i0D-10">
          <mxGeometry x="0.1348" y="4" relative="1" as="geometry">
            <mxPoint as="offset" />
          </mxGeometry>
        </mxCell>
        <mxCell id="AINoFc_AuR4UppCe1i0D-13" style="edgeStyle=orthogonalEdgeStyle;rounded=0;orthogonalLoop=1;jettySize=auto;html=1;entryX=0;entryY=0.5;entryDx=0;entryDy=0;" edge="1" parent="1" source="AINoFc_AuR4UppCe1i0D-1" target="AINoFc_AuR4UppCe1i0D-12">
          <mxGeometry relative="1" as="geometry">
            <Array as="points">
              <mxPoint x="390" y="460" />
            </Array>
          </mxGeometry>
        </mxCell>
        <mxCell id="AINoFc_AuR4UppCe1i0D-14" value="Input Capture" style="edgeLabel;html=1;align=center;verticalAlign=middle;resizable=0;points=[];" vertex="1" connectable="0" parent="AINoFc_AuR4UppCe1i0D-13">
          <mxGeometry x="0.2488" y="1" relative="1" as="geometry">
            <mxPoint as="offset" />
          </mxGeometry>
        </mxCell>
        <mxCell id="AINoFc_AuR4UppCe1i0D-16" style="edgeStyle=orthogonalEdgeStyle;rounded=0;orthogonalLoop=1;jettySize=auto;html=1;entryX=0;entryY=0.5;entryDx=0;entryDy=0;fillColor=#66FF66;strokeColor=light-dark(#000000,#FFFFFF);" edge="1" parent="1" source="AINoFc_AuR4UppCe1i0D-1" target="AINoFc_AuR4UppCe1i0D-15">
          <mxGeometry relative="1" as="geometry">
            <Array as="points">
              <mxPoint x="390" y="-20" />
            </Array>
          </mxGeometry>
        </mxCell>
        <mxCell id="AINoFc_AuR4UppCe1i0D-17" value="PWM" style="edgeLabel;html=1;align=center;verticalAlign=middle;resizable=0;points=[];fillColor=#66FF66;" vertex="1" connectable="0" parent="AINoFc_AuR4UppCe1i0D-16">
          <mxGeometry x="0.3401" y="2" relative="1" as="geometry">
            <mxPoint as="offset" />
          </mxGeometry>
        </mxCell>
        <mxCell id="AINoFc_AuR4UppCe1i0D-1" value="Atmega" style="rounded=0;whiteSpace=wrap;html=1;" vertex="1" parent="1">
          <mxGeometry x="365" y="190" width="120" height="60" as="geometry" />
        </mxCell>
        <mxCell id="AINoFc_AuR4UppCe1i0D-3" value="LCD Display" style="rounded=0;whiteSpace=wrap;html=1;" vertex="1" parent="1">
          <mxGeometry x="640" y="190" width="120" height="60" as="geometry" />
        </mxCell>
        <mxCell id="AINoFc_AuR4UppCe1i0D-4" value="" style="endArrow=classic;html=1;rounded=0;entryX=0;entryY=0.5;entryDx=0;entryDy=0;exitX=1;exitY=0.5;exitDx=0;exitDy=0;" edge="1" parent="1" source="AINoFc_AuR4UppCe1i0D-1" target="AINoFc_AuR4UppCe1i0D-3">
          <mxGeometry width="50" height="50" relative="1" as="geometry">
            <mxPoint x="440" y="360" as="sourcePoint" />
            <mxPoint x="490" y="310" as="targetPoint" />
          </mxGeometry>
        </mxCell>
        <mxCell id="AINoFc_AuR4UppCe1i0D-5" value="SPI" style="edgeLabel;html=1;align=center;verticalAlign=middle;resizable=0;points=[];" vertex="1" connectable="0" parent="AINoFc_AuR4UppCe1i0D-4">
          <mxGeometry x="0.1513" y="2" relative="1" as="geometry">
            <mxPoint as="offset" />
          </mxGeometry>
        </mxCell>
        <mxCell id="AINoFc_AuR4UppCe1i0D-6" value="Buzzer" style="rounded=0;whiteSpace=wrap;html=1;" vertex="1" parent="1">
          <mxGeometry x="640" y="70" width="120" height="60" as="geometry" />
        </mxCell>
        <mxCell id="AINoFc_AuR4UppCe1i0D-9" value="HR monitor in the button" style="rounded=0;whiteSpace=wrap;html=1;" vertex="1" parent="1">
          <mxGeometry x="640" y="310" width="120" height="60" as="geometry" />
        </mxCell>
        <mxCell id="AINoFc_AuR4UppCe1i0D-12" value="Button itslef" style="rounded=0;whiteSpace=wrap;html=1;" vertex="1" parent="1">
          <mxGeometry x="640" y="430" width="120" height="60" as="geometry" />
        </mxCell>
        <mxCell id="AINoFc_AuR4UppCe1i0D-15" value="Motors for wheels" style="rounded=0;whiteSpace=wrap;html=1;fillColor=#66FF66;" vertex="1" parent="1">
          <mxGeometry x="640" y="-50" width="120" height="60" as="geometry" />
        </mxCell>
        <mxCell id="AINoFc_AuR4UppCe1i0D-23" value="Optional" style="text;html=1;align=center;verticalAlign=middle;whiteSpace=wrap;rounded=0;" vertex="1" parent="1">
          <mxGeometry x="640" y="-90" width="60" height="30" as="geometry" />
        </mxCell>
      </root>
    </mxGraphModel>
  </diagram>
</mxfile>
